<?xml version="1.0" encoding="UTF-8" standalone="no"?>
<svg
   width="48"
   height="48"
   viewBox="0 0 48 48"
   version="1.1"
   id="svg26"
   sodipodi:docname="pocketcasts.svg"
   inkscape:version="1.1 (c68e22c387, 2021-05-23)"
   xmlns:inkscape="http://www.inkscape.org/namespaces/inkscape"
   xmlns:sodipodi="http://sodipodi.sourceforge.net/DTD/sodipodi-0.dtd"
   xmlns="http://www.w3.org/2000/svg"
   xmlns:svg="http://www.w3.org/2000/svg"
   xmlns:rdf="http://www.w3.org/1999/02/22-rdf-syntax-ns#"
   xmlns:cc="http://creativecommons.org/ns#"
   xmlns:dc="http://purl.org/dc/elements/1.1/">
  <defs
     id="defs30" />
  <sodipodi:namedview
     id="namedview28"
     pagecolor="#ffffff"
     bordercolor="#666666"
     borderopacity="1.0"
     inkscape:pageshadow="2"
     inkscape:pageopacity="0.0"
     inkscape:pagecheckerboard="0"
     showgrid="false"
     fit-margin-top="0"
     fit-margin-left="0"
     fit-margin-right="0"
     fit-margin-bottom="0"
     inkscape:zoom="4.8090909"
     inkscape:cx="25.47259"
     inkscape:cy="59.15879"
     inkscape:window-width="1920"
     inkscape:window-height="1009"
     inkscape:window-x="-8"
     inkscape:window-y="-8"
     inkscape:window-maximized="1"
     inkscape:current-layer="svg26" />
  <!-- Generator: Sketch 54.1 (76490) - https://sketchapp.com -->
  <title
     id="title2">Badges/pocketcasts_large_light</title>
  <desc
     id="desc4">Created with Sketch.</desc>
  <g
     id="Pocket-Casts-Roundel---Red"
     style="fill:none;fill-rule:evenodd;stroke:none;stroke-width:1">
    <g
       id="Group">
      <path
         d="M 48,24 C 48,37.255111 37.255111,48 24,48 10.744889,48 0,37.255111 0,24 0,10.744889 10.744889,0 24,0 37.255111,0 48,10.744889 48,24"
         id="Fill-23"
         fill="#f43e37" />
      <g
         id="Glyph---White"
         transform="translate(5.333333,5.333333)"
         fill="#ffffff">
        <path
           d="M 0,18.5 C 0,8.2827321 8.2827321,0 18.5,0 28.717268,0 37,8.2827321 37,18.5 H 32.375 C 32.375,10.837049 26.162951,4.625 18.5,4.625 10.837049,4.625 4.625,10.837049 4.625,18.5 c 0,7.662951 6.212049,13.875 13.875,13.875 V 37 C 8.2827321,37 0,28.717268 0,18.5 Z M 18.5,29.6 C 12.369639,29.6 7.4,24.630361 7.4,18.5 7.4,12.369639 12.369639,7.4 18.5,7.4 c 6.130361,0 11.1,4.969639 11.1,11.1 h -4.036364 c 0,-3.901139 -3.162497,-7.063636 -7.063636,-7.063636 -3.901139,0 -7.063636,3.162497 -7.063636,7.063636 0,3.901139 3.162497,7.063636 7.063636,7.063636 z"
           id="Path" />
      </g>
    </g>
  </g>
  <metadata
     id="metadata131">
    <rdf:RDF>
      <cc:Work
         rdf:about="">
        <dc:title>Badges/pocketcasts_large_light</dc:title>
      </cc:Work>
    </rdf:RDF>
  </metadata>
</svg>
